<mxfile host="www.draw.io" modified="2019-12-13T19:41:03.733Z" agent="Mozilla/5.0 (Windows NT 10.0; Win64; x64) AppleWebKit/537.36 (KHTML, like Gecko) Chrome/78.0.3904.108 Safari/537.36" etag="44NBJA1b7udjsxgAVzr_" version="12.4.1" type="github" pages="1">
  <diagram id="RuPGUetqcB6qtvkANAkR" name="Components">
    <mxGraphModel dx="1248" dy="677" grid="1" gridSize="10" guides="1" tooltips="1" connect="1" arrows="1" fold="1" page="1" pageScale="1" pageWidth="827" pageHeight="1169" math="0" shadow="0">
      <root>
        <mxCell id="0"/>
        <mxCell id="1" parent="0"/>
        <mxCell id="2S4x7krTkiD_vt_uix7Z-8" style="edgeStyle=orthogonalEdgeStyle;curved=1;rounded=0;orthogonalLoop=1;jettySize=auto;html=1;exitX=1;exitY=0.25;exitDx=0;exitDy=0;entryX=0.75;entryY=0;entryDx=0;entryDy=0;dashed=1;" edge="1" parent="1" source="2S4x7krTkiD_vt_uix7Z-1" target="2S4x7krTkiD_vt_uix7Z-3">
          <mxGeometry relative="1" as="geometry"/>
        </mxCell>
        <mxCell id="2S4x7krTkiD_vt_uix7Z-1" value="use-cases" style="shape=component;align=left;spacingLeft=36;" vertex="1" parent="1">
          <mxGeometry x="246" y="98" width="120" height="60" as="geometry"/>
        </mxCell>
        <mxCell id="2S4x7krTkiD_vt_uix7Z-4" style="rounded=0;orthogonalLoop=1;jettySize=auto;html=1;exitX=0.5;exitY=0;exitDx=0;exitDy=0;entryX=0.25;entryY=1;entryDx=0;entryDy=0;" edge="1" parent="1" source="2S4x7krTkiD_vt_uix7Z-2" target="2S4x7krTkiD_vt_uix7Z-1">
          <mxGeometry relative="1" as="geometry"/>
        </mxCell>
        <mxCell id="2S4x7krTkiD_vt_uix7Z-7" style="edgeStyle=orthogonalEdgeStyle;rounded=0;orthogonalLoop=1;jettySize=auto;html=1;exitX=0.25;exitY=0;exitDx=0;exitDy=0;entryX=0;entryY=0.3;entryDx=0;entryDy=0;curved=1;dashed=1;" edge="1" parent="1" source="2S4x7krTkiD_vt_uix7Z-2" target="2S4x7krTkiD_vt_uix7Z-1">
          <mxGeometry relative="1" as="geometry"/>
        </mxCell>
        <mxCell id="2S4x7krTkiD_vt_uix7Z-2" value="delivery" style="shape=component;align=left;spacingLeft=36;" vertex="1" parent="1">
          <mxGeometry x="110" y="230" width="120" height="60" as="geometry"/>
        </mxCell>
        <mxCell id="2S4x7krTkiD_vt_uix7Z-5" style="edgeStyle=none;rounded=0;orthogonalLoop=1;jettySize=auto;html=1;exitX=0.25;exitY=0;exitDx=0;exitDy=0;entryX=0.75;entryY=1;entryDx=0;entryDy=0;" edge="1" parent="1" source="2S4x7krTkiD_vt_uix7Z-3" target="2S4x7krTkiD_vt_uix7Z-1">
          <mxGeometry relative="1" as="geometry"/>
        </mxCell>
        <mxCell id="2S4x7krTkiD_vt_uix7Z-3" value="memory" style="shape=component;align=left;spacingLeft=36;" vertex="1" parent="1">
          <mxGeometry x="400" y="230" width="120" height="60" as="geometry"/>
        </mxCell>
        <mxCell id="2S4x7krTkiD_vt_uix7Z-6" value="code dependencies" style="rounded=0;orthogonalLoop=1;jettySize=auto;html=1;entryX=0.25;entryY=1;entryDx=0;entryDy=0;" edge="1" parent="1">
          <mxGeometry x="-0.1304" y="-14" relative="1" as="geometry">
            <mxPoint x="100" y="26" as="sourcePoint"/>
            <mxPoint x="146" y="26" as="targetPoint"/>
            <mxPoint as="offset"/>
          </mxGeometry>
        </mxCell>
        <mxCell id="2S4x7krTkiD_vt_uix7Z-9" value="Flow control" style="rounded=0;orthogonalLoop=1;jettySize=auto;html=1;entryX=0;entryY=0.3;entryDx=0;entryDy=0;dashed=1;" edge="1" parent="1">
          <mxGeometry x="-0.1304" y="-10" relative="1" as="geometry">
            <mxPoint x="100" y="70" as="sourcePoint"/>
            <mxPoint x="146" y="70" as="targetPoint"/>
            <mxPoint as="offset"/>
          </mxGeometry>
        </mxCell>
        <mxCell id="2S4x7krTkiD_vt_uix7Z-15" style="edgeStyle=none;rounded=0;orthogonalLoop=1;jettySize=auto;html=1;entryX=0.75;entryY=0;entryDx=0;entryDy=0;dashed=1;endArrow=none;endFill=0;dashPattern=1 4;" edge="1" parent="1" source="2S4x7krTkiD_vt_uix7Z-10" target="2S4x7krTkiD_vt_uix7Z-1">
          <mxGeometry relative="1" as="geometry"/>
        </mxCell>
        <mxCell id="2S4x7krTkiD_vt_uix7Z-10" value="Business logic" style="shape=note;whiteSpace=wrap;html=1;size=14;verticalAlign=top;align=left;spacingTop=-6;fillColor=#f5f5f5;strokeColor=#666666;fontColor=#333333;" vertex="1" parent="1">
          <mxGeometry x="390" y="40" width="110" height="40" as="geometry"/>
        </mxCell>
        <mxCell id="2S4x7krTkiD_vt_uix7Z-16" style="edgeStyle=none;rounded=0;orthogonalLoop=1;jettySize=auto;html=1;exitX=0.5;exitY=1;exitDx=0;exitDy=0;exitPerimeter=0;entryX=1;entryY=0.75;entryDx=0;entryDy=0;dashed=1;dashPattern=1 4;endArrow=none;endFill=0;" edge="1" parent="1" source="2S4x7krTkiD_vt_uix7Z-11" target="2S4x7krTkiD_vt_uix7Z-3">
          <mxGeometry relative="1" as="geometry"/>
        </mxCell>
        <mxCell id="2S4x7krTkiD_vt_uix7Z-11" value="Storage in &lt;br&gt;memory" style="shape=note;whiteSpace=wrap;html=1;size=14;verticalAlign=top;align=left;spacingTop=-6;fillColor=#f5f5f5;strokeColor=#666666;fontColor=#333333;" vertex="1" parent="1">
          <mxGeometry x="550" y="210" width="110" height="40" as="geometry"/>
        </mxCell>
        <mxCell id="2S4x7krTkiD_vt_uix7Z-17" style="edgeStyle=none;rounded=0;orthogonalLoop=1;jettySize=auto;html=1;exitX=0;exitY=0;exitDx=48;exitDy=0;exitPerimeter=0;entryX=0.5;entryY=1;entryDx=0;entryDy=0;dashed=1;dashPattern=1 4;endArrow=none;endFill=0;" edge="1" parent="1" source="2S4x7krTkiD_vt_uix7Z-12" target="2S4x7krTkiD_vt_uix7Z-2">
          <mxGeometry relative="1" as="geometry"/>
        </mxCell>
        <mxCell id="2S4x7krTkiD_vt_uix7Z-12" value="REST endpoint" style="shape=note;whiteSpace=wrap;html=1;size=14;verticalAlign=top;align=left;spacingTop=-6;fillColor=#f5f5f5;strokeColor=#666666;fontColor=#333333;" vertex="1" parent="1">
          <mxGeometry x="100" y="340" width="110" height="40" as="geometry"/>
        </mxCell>
      </root>
    </mxGraphModel>
  </diagram>
</mxfile>
